<svg width="1600" height="520" viewBox="0 0 1600 520" fill="none" xmlns="http://www.w3.org/2000/svg">
  <title>Style AI wordmark lockup - Reversible S / Future Spark</title>
  <desc>Horizontal lockup candidate combining the selected app icon symbol with a clean product wordmark.</desc>
  <defs>
    <linearGradient id="sparkGradient" x1="418" y1="344" x2="574" y2="596" gradientUnits="userSpaceOnUse">
      <stop offset="0" stop-color="#9D7AFF"/>
      <stop offset="0.52" stop-color="#6D3DF7"/>
      <stop offset="1" stop-color="#7B52FA"/>
    </linearGradient>
  </defs>
  <g transform="translate(80 80) scale(0.35)">
    <rect width="1024" height="1024" rx="208" fill="#111111"/>
    <path d="M 528.889 141.579 C 529.979 141.766 531.07 141.953 532.193 142.145 C 557.354 146.549 582.456 154.131 605.333 165.621 C 606.187 166.044 607.041 166.468 607.921 166.904 C 619.381 172.618 630.559 178.496 640.889 186.101 C 641.392 186.469 641.895 186.837 642.414 187.217 C 645.826 189.732 649.149 192.337 652.444 195.005 C 653.344 195.726 654.243 196.447 655.17 197.19 C 655.994 197.883 656.818 198.576 657.667 199.29 C 658.398 199.902 659.129 200.514 659.882 201.144 C 661.333 203.019 661.333 203.019 661.351 205.071 C 660.147 208.26 658.494 211.088 656.722 213.983 C 655.917 215.325 655.113 216.667 654.309 218.01 C 653.87 218.74 653.432 219.47 652.98 220.222 C 650.317 224.685 647.719 229.187 645.111 233.683 C 644.089 235.445 643.066 237.206 642.042 238.967 C 641.315 240.219 641.315 240.219 640.573 241.497 C 638.69 244.694 636.745 247.85 634.782 250.999 C 633.414 253.567 633.155 255.386 633.778 258.226 C 635.173 260.022 635.982 260.797 638.222 261.283 C 643.472 261.293 646.698 260.19 651.056 257.336 C 651.683 256.946 652.311 256.556 652.957 256.154 C 654.372 255.274 655.783 254.385 657.189 253.491 C 659.784 251.848 662.398 250.24 665.017 248.637 C 672.733 243.909 680.439 239.167 688.08 234.32 C 688.922 233.789 689.764 233.258 690.631 232.711 C 692.199 231.72 693.764 230.723 695.324 229.719 C 703.46 224.59 710.574 224.058 720.056 223.833 C 721.265 223.799 722.475 223.765 723.684 223.731 C 736.38 223.392 749.078 223.41 761.778 223.499 C 758.412 228.603 754.98 233.65 751.444 238.637 C 750.507 239.963 749.569 241.289 748.632 242.616 C 748.158 243.285 747.685 243.954 747.197 244.643 C 744.942 247.832 742.693 251.026 740.444 254.219 C 739.556 255.481 738.667 256.742 737.778 258.003 C 737.338 258.628 736.898 259.252 736.444 259.896 C 735.111 261.788 733.778 263.68 732.444 265.572 C 731.784 266.511 731.784 266.511 731.11 267.468 C 730.227 268.719 729.344 269.969 728.458 271.217 C 726.118 274.522 723.816 277.847 721.559 281.21 C 720.847 282.258 720.847 282.258 720.12 283.327 C 719.209 284.668 718.308 286.016 717.418 287.372 C 714.371 291.825 714.371 291.825 711.507 292.97 C 709.271 292.953 707.349 292.719 705.167 292.23 C 700.921 291.378 696.693 290.828 692.389 290.393 C 682.605 289.375 672.913 287.798 663.199 286.261 C 659.303 285.651 655.402 285.072 651.5 284.494 C 644.607 283.462 637.719 282.403 630.833 281.322 C 629.425 281.105 629.425 281.105 627.988 280.883 C 614.542 278.753 614.542 278.753 609.667 273.363 C 604.536 267.928 598.958 263.457 592.889 259.117 C 592.371 258.746 591.853 258.375 591.319 257.993 C 582.761 251.935 573.809 246.891 564.444 242.198 C 563.477 241.704 562.51 241.209 561.514 240.699 C 550.928 235.518 539.516 232.124 528 229.732 C 528 229.144 528 228.557 528 227.951 C 526.695 227.886 526.695 227.886 525.365 227.819 C 524.199 227.753 523.034 227.686 521.833 227.617 C 520.116 227.524 520.116 227.524 518.365 227.43 C 515.806 227.234 513.449 226.798 510.962 226.168 C 506.691 225.197 502.605 224.979 498.236 224.95 C 497.449 224.94 496.662 224.93 495.851 224.919 C 493.308 224.895 490.765 224.89 488.222 224.89 C 487.351 224.89 486.48 224.889 485.583 224.888 C 462.104 224.935 437.774 227.743 416.63 238.754 C 414.871 239.649 413.084 240.324 411.222 240.974 C 373.308 255.932 342.915 289.738 326.507 326.334 C 318.422 345.155 313.398 365.011 312.889 385.558 C 312.862 386.558 312.862 386.558 312.834 387.578 C 312.385 406.386 313.949 424.419 319.111 442.546 C 319.328 443.307 319.544 444.067 319.767 444.851 C 327.395 470.924 340.683 494.513 359.059 514.452 C 360.652 516.194 362.16 517.975 363.667 519.791 C 371.812 529.119 381.434 537.168 391.283 544.617 C 392.945 545.879 394.591 547.159 396.236 548.442 C 424.37 570.197 456.573 585.799 490.076 597.304 C 498.42 600.261 506.104 604.369 510.222 612.619 C 510.31 614.536 510.338 616.456 510.34 618.376 C 510.342 619.253 510.342 619.253 510.344 620.148 C 510.346 622.072 510.34 623.996 510.333 625.92 C 510.332 626.576 510.331 627.233 510.33 627.909 C 510.237 675.809 510.237 675.809 505.778 684.744 C 502.492 687.806 500.018 687.828 495.693 687.685 C 491.89 687.251 488.624 685.993 485.111 684.522 C 483.933 684.05 483.933 684.05 482.731 683.568 C 480.989 682.868 479.25 682.162 477.513 681.45 C 474.474 680.214 471.423 679.012 468.368 677.816 C 414.43 656.63 360.139 631.136 316.993 591.579 C 315.119 589.879 313.223 588.218 311.309 586.563 C 307.409 583.151 303.714 579.558 300.056 575.889 C 299.392 575.223 298.729 574.558 298.045 573.872 C 293.845 569.618 289.917 565.306 286.236 560.591 C 284.322 558.146 282.305 555.813 280.278 553.461 C 261.342 530.639 247.478 504.165 237.333 476.383 C 237.096 475.735 236.86 475.088 236.615 474.421 C 217.366 421.03 217.301 358.046 239.111 305.419 C 239.986 303.599 240.9 301.805 241.829 300.012 C 242.955 297.705 243.798 295.326 244.67 292.914 C 245.761 290.051 247.116 287.336 248.5 284.605 C 248.806 283.999 249.112 283.393 249.428 282.769 C 258.122 265.71 268.055 250.037 280 235.075 C 280.551 234.371 281.102 233.668 281.67 232.943 C 286.999 226.254 292.781 220.172 298.833 214.15 C 299.324 213.659 299.814 213.169 300.32 212.665 C 307.396 205.61 314.534 199.048 322.667 193.224 C 323.645 192.47 324.621 191.711 325.594 190.95 C 352.898 169.818 384.679 155.911 417.778 146.922 C 418.45 146.737 419.122 146.552 419.814 146.362 C 454.224 137.053 493.767 135.408 528.889 141.579 Z" fill="#FAFAF7"/>
    <path d="M 502.222 345.489 C 502.516 345.489 502.809 345.489 503.111 345.489 C 503.222 346.061 503.334 346.634 503.449 347.224 C 509.031 375.669 515.401 399.919 540.556 417.057 C 554.937 426.257 571.268 432.662 587.066 438.963 C 610.58 448.413 633.274 459.043 655.111 471.93 C 655.836 472.356 656.561 472.782 657.309 473.221 C 674.371 483.288 690.786 494.722 705.354 508.202 C 707.178 509.873 709.028 511.496 710.899 513.113 C 720.699 521.684 729.831 531.068 737.778 541.384 C 738.888 542.741 738.888 542.741 740.021 544.125 C 756.1 563.843 768.434 586.334 777.778 609.948 C 778.152 610.866 778.152 610.866 778.533 611.803 C 782.016 620.432 784.289 629.347 786.444 638.386 C 786.837 640.007 786.837 640.007 787.237 641.661 C 790.567 656.151 791.476 670.576 791.444 685.412 C 791.445 686.198 791.445 686.984 791.445 687.794 C 791.409 706.516 789.897 725.321 784.567 743.361 C 783.869 745.74 783.211 748.129 782.549 750.518 C 779.975 759.705 777.341 768.675 773.333 777.35 C 772.731 778.723 772.13 780.097 771.531 781.471 C 762.819 801.358 752.445 820.151 738.667 837.009 C 738.283 837.478 737.9 837.948 737.505 838.432 C 724.544 854.236 710.563 868.341 694.222 880.64 C 693.736 881.009 693.25 881.378 692.749 881.759 C 683.618 888.649 673.9 894.521 664 900.23 C 663.408 900.572 662.815 900.914 662.205 901.267 C 636.803 915.777 608.285 924.802 579.781 930.748 C 577.007 931.246 577.007 931.246 575.111 932.285 C 572.944 932.597 570.785 932.872 568.611 933.12 C 564.203 933.642 559.823 934.219 555.444 934.957 C 547.672 936.188 539.832 936.788 531.995 937.44 C 530.194 937.592 528.396 937.762 526.597 937.937 C 510.194 939.403 493.632 938.673 477.222 937.683 C 476.566 937.645 475.909 937.606 475.233 937.566 C 473.375 937.454 471.517 937.336 469.66 937.214 C 468.588 937.144 467.517 937.074 466.413 937.002 C 464 936.737 464 936.737 463.111 935.847 C 461.543 935.633 459.968 935.472 458.392 935.332 C 437.881 933.397 418.23 929.974 398.508 923.99 C 394.364 922.766 390.169 921.728 385.979 920.671 C 382.819 919.732 379.914 918.455 376.889 917.148 C 375.136 916.54 373.373 915.98 371.604 915.422 C 342.471 906.223 313.178 891.715 288 874.407 C 287.411 874.003 286.821 873.599 286.214 873.183 C 277.371 867.096 268.72 860.773 260.444 853.927 C 259.874 853.469 259.303 853.011 258.715 852.539 C 258.406 852.116 258.097 851.692 257.778 851.256 C 258.196 848.558 259.141 846.739 260.712 844.536 C 261.135 843.938 261.558 843.34 261.995 842.724 C 262.685 841.768 262.685 841.768 263.389 840.793 C 264.106 839.788 264.106 839.788 264.837 838.763 C 268.467 833.698 272.186 828.703 275.939 823.729 C 279.24 819.348 282.467 814.918 285.667 810.463 C 286.139 809.809 286.611 809.155 287.097 808.481 C 289.726 804.836 292.336 801.178 294.927 797.506 C 296.044 795.944 297.161 794.382 298.278 792.821 C 299.056 791.704 299.056 791.704 299.85 790.564 C 300.341 789.883 300.831 789.202 301.337 788.501 C 301.766 787.894 302.195 787.287 302.637 786.662 C 304 785.363 304 785.363 307.556 785.363 C 309.305 786.604 310.879 787.866 312.5 789.259 C 366.284 833.318 434.831 856.78 503.889 856.821 C 504.815 856.821 505.742 856.822 506.697 856.823 C 527.488 856.801 546.947 854.717 567.111 849.475 C 567.77 849.307 568.429 849.14 569.108 848.968 C 613.226 837.595 653.781 809.97 677.335 770.617 C 698.74 734.186 706.644 691.721 696.297 650.322 C 693.605 640.008 690.001 630.208 685.333 620.633 C 685.032 620.012 684.731 619.391 684.42 618.752 C 679.889 609.538 674.672 601.181 668.444 593.03 C 667.83 592.225 667.216 591.42 666.583 590.591 C 655.717 576.705 643.475 564.346 629.333 553.85 C 628.59 553.292 628.59 553.292 627.831 552.721 C 597.122 529.715 543.385 497.753 504 497.753 C 501.653 504.511 499.307 511.27 496.889 518.233 C 496.596 518.233 496.302 518.233 496 518.233 C 495.789 516.727 495.789 516.727 495.573 515.19 C 492.405 493.451 488.544 468.142 470.153 453.763 C 457.637 444.749 442.774 438.184 427.722 434.866 C 421.535 433.489 421.535 433.489 418.667 432.751 C 418.667 432.164 418.667 431.576 418.667 430.97 C 419.605 430.729 419.605 430.729 420.562 430.483 C 445.211 424.105 469.48 417.574 484.444 395.353 C 492.788 381.167 496.711 365.174 500.746 349.371 C 501.333 347.27 501.333 347.27 502.222 345.489 Z" fill="#FAFAF7"/>
    <path d="M 502.222 345.489 C 502.516 345.489 502.809 345.489 503.111 345.489 C 503.222 346.061 503.334 346.634 503.449 347.224 C 509.031 375.669 515.401 399.919 540.556 417.057 C 549.007 422.491 558.332 426.501 567.431 430.704 C 569.786 431.865 572.02 433.101 574.222 434.532 C 574.222 434.826 574.222 435.12 574.222 435.423 C 573.406 435.649 572.591 435.875 571.75 436.108 C 565.958 437.735 560.251 439.4 554.667 441.656 C 553.967 441.92 553.266 442.184 552.545 442.456 C 535.148 449.128 521.977 460.072 512.889 476.383 C 512.458 477.146 512.027 477.909 511.583 478.696 C 508.939 483.662 507.31 488.724 505.743 494.118 C 504.817 497.093 503.617 499.8 502.295 502.612 C 500.142 507.681 498.571 512.992 496.889 518.233 C 496.596 518.233 496.302 518.233 496 518.233 C 495.859 517.229 495.718 516.224 495.573 515.19 C 492.405 493.451 488.544 468.142 470.153 453.763 C 457.637 444.749 442.774 438.184 427.722 434.866 C 421.535 433.489 421.535 433.489 418.667 432.751 C 418.667 432.164 418.667 431.576 418.667 430.97 C 419.605 430.729 419.605 430.729 420.562 430.483 C 445.211 424.105 469.48 417.574 484.444 395.353 C 492.788 381.167 496.711 365.174 500.746 349.371 C 501.333 347.27 501.333 347.27 502.222 345.489 Z" fill="url(#sparkGradient)"/>
  </g>
  <text x="500" y="313" fill="#171717" font-family="Inter, SF Pro Display, Segoe UI, Arial, sans-serif" font-size="164" font-weight="650" letter-spacing="0">Style AI</text>
</svg>
